<?xml version="1.0" encoding="UTF-8"?>
<svg width="2e3" height="2e3" clip-rule="evenodd" fill-rule="evenodd" stroke-linecap="round" stroke-linejoin="round" stroke-miterlimit="1.5" version="1.1" viewBox="0 0 2e3 2e3" xml:space="preserve" xmlns="http://www.w3.org/2000/svg" xmlns:cc="http://creativecommons.org/ns#" xmlns:dc="http://purl.org/dc/elements/1.1/" xmlns:rdf="http://www.w3.org/1999/02/22-rdf-syntax-ns#"><metadata><rdf:RDF><cc:Work rdf:about=""><dc:format>image/svg+xml</dc:format><dc:type rdf:resource="http://purl.org/dc/dcmitype/StillImage"/><dc:title/></cc:Work></rdf:RDF></metadata><rect id="donut_chart" x="-175" y="-175" width="2250" height="2250" fill="none"/><g stroke="#000" stroke-width="66.67px"><path d="m1e3 531.25c-517.77 0-937.5 419.73-937.5 937.5h468.75c0-258.88 209.87-468.75 468.75-468.75z" fill="#fff"/><path d="m1849.7 1072.5c-153.98-330.17-485.32-541.24-849.66-541.24v468.7c182.17 0 347.84 105.54 424.83 270.62z" fill="#4a4a4a"/><path d="m1937.5 1460.4c-0.068-7.6352-0.2293-15.267-0.4835-22.894-1.017-30.506-3.5226-60.928-7.5021-91.156-15.918-120.91-55.42-238.72-117.58-346.38l-405.95 234.38c31.08 53.832 50.831 112.74 58.79 173.19 1.9898 15.114 3.2428 30.325 3.7512 45.578 0.1271 3.8133 0.2077 7.6291 0.2417 11.447z" fill="#999"/></g></svg>
